<svg xmlns="http://www.w3.org/2000/svg" viewBox="0 0 1920 1080" preserveAspectRatio="xMidYMid slice">
  <defs>
    <linearGradient id="cellar" x1="0" y1="0" x2="1" y2="1">
      <stop offset="0" stop-color="#160916"/>
      <stop offset=".48" stop-color="#431329"/>
      <stop offset="1" stop-color="#080412"/>
    </linearGradient>
    <radialGradient id="wineGlow" cx="74%" cy="22%" r="46%">
      <stop offset="0" stop-color="#fecdd3" stop-opacity=".36"/>
      <stop offset=".42" stop-color="#be123c" stop-opacity=".16"/>
      <stop offset="1" stop-color="#020617" stop-opacity="0"/>
    </radialGradient>
  </defs>
  <rect width="1920" height="1080" fill="url(#cellar)"/>
  <rect width="1920" height="1080" fill="url(#wineGlow)"/>
  <g opacity=".58">
    <rect x="130" y="160" width="220" height="620" rx="18" fill="#1e1028"/>
    <rect x="430" y="160" width="220" height="620" rx="18" fill="#1e1028"/>
    <rect x="730" y="160" width="220" height="620" rx="18" fill="#1e1028"/>
    <rect x="1030" y="160" width="220" height="620" rx="18" fill="#1e1028"/>
    <rect x="1330" y="160" width="220" height="620" rx="18" fill="#1e1028"/>
    <path d="M150 260h1400M150 420h1400M150 580h1400M150 740h1400" stroke="#fda4af" stroke-opacity=".14" stroke-width="5"/>
  </g>
  <g fill="#7f1d1d" opacity=".42">
    <circle cx="220" cy="330" r="34"/><circle cx="300" cy="330" r="34"/><circle cx="520" cy="490" r="34"/><circle cx="600" cy="490" r="34"/>
    <circle cx="820" cy="650" r="34"/><circle cx="900" cy="650" r="34"/><circle cx="1120" cy="330" r="34"/><circle cx="1200" cy="330" r="34"/>
    <circle cx="1420" cy="490" r="34"/><circle cx="1500" cy="490" r="34"/>
  </g>
  <path d="M-80 900C240 760 416 882 690 746s450-168 720-42 410 40 650-132" fill="none" stroke="#f0abfc" stroke-opacity=".18" stroke-width="38"/>
  <path d="M-100 960C238 840 466 936 744 826s456-112 702-34" fill="none" stroke="#020617" stroke-opacity=".32" stroke-width="48"/>
</svg>
